<?xml version="1.0" standalone="no"?>
<!DOCTYPE svg PUBLIC "-//W3C//DTD SVG 20010904//EN"
 "http://www.w3.org/TR/2001/REC-SVG-20010904/DTD/svg10.dtd">
<svg version="1.0" xmlns="http://www.w3.org/2000/svg"
 width="677.000000pt" height="369.000000pt" viewBox="0 0 677.000000 369.000000"
 preserveAspectRatio="xMidYMid meet">

<g transform="translate(0.000000,369.000000) scale(0.100000,-0.100000)"
fill="#000000" stroke="none">
<path d="M3404 3400 c-27 -11 -38 -27 -19 -27 8 0 12 4 9 9 -3 4 2 8 10 8 8 0
18 5 21 10 7 12 7 12 -21 0z"/>
<path d="M3181 3024 c0 -11 3 -14 6 -6 3 7 2 16 -1 19 -3 4 -6 -2 -5 -13z"/>
<path d="M3575 3010 c-4 -16 -16 -37 -28 -46 -15 -11 -16 -15 -5 -11 12 4 15
2 12 -8 -4 -8 3 -15 18 -18 13 -2 -8 -3 -47 -1 -50 2 -61 1 -40 -5 17 -5 24
-9 16 -10 -19 -1 -9 -11 18 -16 11 -2 21 0 21 6 0 15 15 10 39 -12 27 -25 19
-37 -31 -49 -28 -7 -29 -8 -8 -9 14 -1 48 -7 77 -15 49 -13 51 -13 48 5 -2 11
5 35 17 54 11 19 17 35 12 35 -4 0 -1 8 8 18 8 9 13 27 12 40 -1 12 3 25 7 28
5 3 9 10 9 16 0 6 -9 3 -19 -6 -16 -14 -18 -23 -10 -42 7 -21 5 -26 -14 -33
-13 -5 -27 -5 -34 1 -9 7 -13 7 -13 0 0 -6 12 -15 28 -21 l27 -11 -30 6 c-16
4 -36 7 -42 7 -7 0 -13 4 -13 9 0 4 6 8 13 8 6 0 1 6 -13 13 -31 15 -37 52
-14 78 15 17 15 19 1 19 -9 0 -18 -12 -22 -30z m65 -150 c0 -5 -4 -10 -10 -10
-5 0 -10 5 -10 10 0 6 5 10 10 10 6 0 10 -4 10 -10z"/>
<path d="M3040 3013 c0 -7 5 -15 10 -18 6 -3 10 -16 10 -28 1 -21 1 -21 11 -3
9 14 7 23 -10 39 -11 12 -21 16 -21 10z"/>
<path d="M3190 2980 c0 -13 3 -20 7 -17 3 4 13 1 22 -5 10 -8 8 -3 -4 12 -11
14 -21 27 -22 29 -2 2 -3 -6 -3 -19z"/>
<path d="M3400 2975 c13 -14 27 -25 31 -25 5 0 -3 11 -17 25 -14 14 -28 25
-31 25 -4 0 4 -11 17 -25z"/>
<path d="M3275 2960 c-4 -6 3 -10 14 -10 25 0 27 6 6 13 -8 4 -17 2 -20 -3z"/>
<path d="M3474 2958 c-4 -7 -3 -8 4 -4 7 4 12 2 12 -3 0 -6 7 -11 16 -11 14 0
14 3 4 15 -15 18 -26 19 -36 3z"/>
<path d="M3145 2938 c-22 -5 -51 -7 -65 -4 -23 4 -23 3 -6 -9 11 -9 31 -11 54
-8 21 3 34 3 31 0 -5 -6 -40 -15 -66 -16 -15 -1 -4 -41 14 -48 10 -4 11 -9 2
-19 -19 -24 -5 -31 40 -19 l45 11 -33 15 -32 16 34 26 c18 14 44 27 58 30 17
3 12 5 -16 7 -34 2 -36 3 -15 9 41 11 1 19 -45 9z"/>
<path d="M3840 2920 c0 -6 7 -13 15 -17 24 -9 27 1 5 15 -13 8 -20 8 -20 2z"/>
<path d="M2898 2903 c7 -3 16 -2 19 1 4 3 -2 6 -13 5 -11 0 -14 -3 -6 -6z"/>
<path d="M3505 2870 c-3 -5 -3 -11 2 -12 4 -1 -39 -5 -97 -8 l-105 -6 104 0
c91 1 104 3 107 19 3 19 -2 22 -11 7z"/>
<path d="M4043 2865 c0 -8 4 -12 9 -9 5 3 6 10 3 15 -9 13 -12 11 -12 -6z"/>
<path d="M3676 2851 c-4 -7 -5 -15 -2 -18 9 -9 19 4 14 18 -4 11 -6 11 -12 0z"/>
<path d="M3080 2840 c0 -5 5 -10 10 -10 6 0 10 5 10 10 0 6 -4 10 -10 10 -5 0
-10 -4 -10 -10z"/>
<path d="M3213 2833 c9 -2 23 -2 30 0 6 3 -1 5 -18 5 -16 0 -22 -2 -12 -5z"/>
<path d="M2815 2810 c10 -11 20 -20 23 -20 3 0 -3 9 -13 20 -10 11 -20 20 -23
20 -3 0 3 -9 13 -20z"/>
<path d="M2718 2803 c6 -2 18 -2 25 0 6 3 1 5 -13 5 -14 0 -19 -2 -12 -5z"/>
<path d="M4023 2803 c9 -2 23 -2 30 0 6 3 -1 5 -18 5 -16 0 -22 -2 -12 -5z"/>
<path d="M3145 2710 c3 -5 11 -10 16 -10 6 0 7 5 4 10 -3 6 -11 10 -16 10 -6
0 -7 -4 -4 -10z"/>
<path d="M4229 2643 c6 -12 11 -31 11 -42 0 -11 4 -22 9 -25 13 -8 -5 64 -19
78 -10 8 -10 6 -1 -11z"/>
<path d="M2695 2611 c-6 -5 -19 -11 -30 -14 -19 -4 -19 -5 1 -6 12 0 27 6 34
14 14 16 10 20 -5 6z"/>
<path d="M4066 2605 c7 -16 64 -21 64 -5 0 5 -6 7 -14 4 -8 -3 -24 -1 -35 5
-17 10 -20 9 -15 -4z"/>
<path d="M2530 2540 c6 -11 13 -20 16 -20 2 0 0 9 -6 20 -6 11 -13 20 -16 20
-2 0 0 -9 6 -20z"/>
<path d="M3460 2493 c-29 -21 -43 -24 -85 -20 -50 4 -50 4 -18 -9 43 -18 85
-8 119 27 33 35 30 35 -16 2z"/>
<path d="M2513 2475 c0 -7 6 -11 14 -8 7 3 13 6 13 8 0 2 -6 5 -13 8 -8 3 -14
-1 -14 -8z"/>
<path d="M4265 2480 c5 -9 1 -10 -16 -6 -21 6 -22 6 -6 -5 13 -7 22 -8 29 -1
6 6 6 12 -3 17 -8 6 -10 4 -4 -5z"/>
<path d="M3146 2415 c-3 -8 -1 -15 4 -15 6 0 10 7 10 15 0 8 -2 15 -4 15 -2 0
-6 -7 -10 -15z"/>
<path d="M2680 2398 c0 -2 7 -21 16 -43 11 -30 13 -33 9 -10 -3 17 -6 36 -7
43 -1 9 -18 19 -18 10z"/>
<path d="M2630 2371 c0 -6 5 -11 10 -11 6 0 9 -3 8 -7 -1 -5 3 -18 10 -31 7
-12 10 -27 7 -32 -3 -6 -1 -10 4 -10 15 0 14 22 -4 46 -8 12 -12 24 -9 26 2 3
-2 11 -11 18 -10 8 -15 9 -15 1z"/>
<path d="M4066 2365 c-3 -9 -6 -22 -5 -28 0 -7 5 -1 10 12 5 13 8 26 5 28 -2
2 -6 -3 -10 -12z"/>
<path d="M4303 2362 c10 -10 17 -25 17 -32 0 -10 3 -11 11 -3 8 8 6 17 -7 32
-10 11 -23 21 -28 21 -5 0 -2 -8 7 -18z"/>
<path d="M4134 2361 c4 -5 1 -12 -4 -14 -6 -3 -5 -4 2 -3 15 3 23 26 8 26 -6
0 -9 -4 -6 -9z"/>
<path d="M2434 2349 c-3 -6 -1 -16 6 -22 10 -9 12 -8 7 5 -3 9 -1 19 6 22 9 3
9 5 0 5 -6 1 -15 -4 -19 -10z"/>
<path d="M3679 2343 c-13 -16 -12 -17 4 -4 9 7 17 15 17 17 0 8 -8 3 -21 -13z"/>
<path d="M3090 2336 c0 -2 8 -10 18 -17 15 -13 16 -12 3 4 -13 16 -21 21 -21
13z"/>
<path d="M4100 2311 c-5 -11 -10 -37 -9 -58 l1 -38 12 35 c7 19 9 36 5 38 -5
2 -4 12 1 23 6 10 8 19 6 19 -3 0 -10 -9 -16 -19z"/>
<path d="M4313 2280 c-8 -22 -18 -30 -36 -30 -14 0 -28 6 -30 13 -3 6 -6 2 -6
-10 -1 -31 40 -41 75 -18 22 14 23 19 12 33 -7 9 -8 13 -2 9 12 -7 29 21 19
31 -3 3 -5 -1 -5 -9 0 -10 -2 -11 -8 -2 -5 8 -12 3 -19 -17z"/>
<path d="M2431 2280 c0 -19 24 -52 32 -43 4 3 7 1 7 -5 0 -17 36 -15 54 4 9 8
13 20 10 26 -4 7 -9 6 -14 -1 -11 -19 -71 -9 -81 14 -5 12 -8 14 -8 5z"/>
<path d="M3215 2270 c6 -30 16 -40 12 -12 -2 12 -6 24 -10 28 -3 4 -4 -4 -2
-16z"/>
<path d="M3541 2263 c-1 -35 -31 -73 -56 -73 -12 0 -13 -5 -7 -17 5 -10 7 -24
5 -30 -3 -7 0 -13 7 -13 6 0 8 5 5 10 -3 6 -2 10 4 10 5 0 13 9 16 21 4 11 13
18 20 15 8 -3 12 2 10 12 -1 9 1 19 4 22 4 3 4 21 0 40 l-6 35 -2 -32z"/>
<path d="M3660 2280 c-13 -9 -13 -10 0 -10 13 0 13 -1 0 -11 -12 -8 -12 -10
-1 -7 8 2 15 12 17 21 3 20 3 19 -16 7z"/>
<path d="M3105 2271 c-3 -5 -2 -12 3 -15 5 -3 9 1 9 9 0 17 -3 19 -12 6z"/>
<path d="M2668 2245 c2 -14 6 -25 8 -25 2 0 4 11 4 25 0 14 -4 25 -9 25 -4 0
-6 -11 -3 -25z"/>
<path d="M3238 2204 c17 -15 29 -30 26 -35 -3 -5 4 -9 15 -9 10 0 22 -6 24
-12 3 -7 6 -3 6 9 1 16 -9 27 -34 39 -19 9 -35 20 -35 25 0 5 -8 9 -17 9 -12
0 -8 -7 15 -26z"/>
<path d="M3630 2200 c0 -6 7 -10 15 -10 8 0 15 2 15 4 0 2 -7 6 -15 10 -8 3
-15 1 -15 -4z"/>
<path d="M3433 2174 c-7 -3 -9 -12 -6 -20 8 -22 -6 -66 -19 -58 -6 4 -9 1 -6
-6 9 -27 26 -20 36 12 8 29 14 79 9 77 -1 0 -7 -3 -14 -5z"/>
<path d="M3595 2150 c-3 -5 1 -10 9 -10 9 0 16 5 16 10 0 6 -4 10 -9 10 -6 0
-13 -4 -16 -10z"/>
<path d="M3275 2140 c-3 -5 -1 -10 4 -10 6 0 11 5 11 10 0 6 -2 10 -4 10 -3 0
-8 -4 -11 -10z"/>
<path d="M3530 2106 c0 -2 8 -10 18 -17 15 -13 16 -12 3 4 -13 16 -21 21 -21
13z"/>
<path d="M3256 2088 c3 -5 10 -6 15 -3 13 9 11 12 -6 12 -8 0 -12 -4 -9 -9z"/>
<path d="M3358 2074 c-4 -3 1 -18 10 -34 15 -25 17 -26 29 -12 16 22 16 39 -1
45 -10 4 -12 0 -8 -16 5 -19 4 -19 -10 -6 -9 7 -14 17 -11 22 5 8 -1 10 -9 1z"/>
<path d="M2642 1954 c-1 -41 1 -74 6 -74 4 0 9 11 10 26 1 14 6 33 10 42 5 11
3 29 -7 49 l-16 32 -3 -75z"/>
<path d="M2550 2001 c0 -6 4 -13 10 -16 6 -3 7 1 4 9 -7 18 -14 21 -14 7z"/>
<path d="M2675 2001 c-3 -5 -2 -12 3 -15 5 -3 9 1 9 9 0 17 -3 19 -12 6z"/>
<path d="M4095 1978 c2 -13 10 -39 18 -58 l15 -35 1 41 c1 28 -5 46 -18 58
-17 16 -18 16 -16 -6z"/>
<path d="M3800 1979 c0 -5 5 -7 10 -4 6 3 10 8 10 11 0 2 -4 4 -10 4 -5 0 -10
-5 -10 -11z"/>
<path d="M2530 1944 c7 -17 7 -23 0 -19 -6 3 -10 2 -10 -4 0 -6 14 -17 30 -26
35 -18 35 -17 13 29 -20 42 -47 59 -33 20z"/>
<path d="M4225 1960 c-3 -5 -3 -10 1 -10 4 0 0 -8 -8 -17 -8 -10 -18 -26 -21
-36 -5 -14 -3 -16 11 -8 9 6 24 15 32 22 13 9 12 10 -4 5 -14 -5 -16 -3 -9 6
6 7 10 21 10 31 0 19 -3 21 -12 7z"/>
<path d="M3941 1944 c0 -11 3 -14 6 -6 3 7 2 16 -1 19 -3 4 -6 -2 -5 -13z"/>
<path d="M3925 1881 c-17 -77 -121 -193 -165 -184 -20 3 -38 -8 -90 -59 -43
-42 -96 -80 -157 -112 -50 -26 -101 -59 -114 -72 -27 -29 -7 -33 23 -5 11 11
52 36 91 56 97 50 149 87 191 136 28 34 40 40 59 35 19 -4 35 3 70 34 44 39
87 97 91 123 1 6 4 17 7 22 14 24 18 45 9 50 -4 3 -11 -8 -15 -24z"/>
<path d="M2860 1821 c0 -6 4 -13 10 -16 6 -3 7 1 4 9 -7 18 -14 21 -14 7z"/>
<path d="M3091 1814 c0 -11 3 -14 6 -6 3 7 2 16 -1 19 -3 4 -6 -2 -5 -13z"/>
<path d="M2434 1789 c-6 -8 -14 -24 -17 -37 -5 -21 -3 -21 29 8 19 16 40 30
46 30 6 0 9 3 6 6 -4 3 -15 1 -26 -5 -15 -8 -21 -8 -24 0 -2 7 -7 7 -14 -2z"/>
<path d="M4305 1791 c-3 -6 5 -19 17 -31 20 -18 23 -19 26 -5 6 28 -29 58 -43
36z"/>
<path d="M2889 1762 c25 -35 77 -82 94 -83 7 -1 21 0 33 0 12 1 27 -8 36 -21
9 -13 44 -43 79 -67 l64 -44 -80 77 c-67 63 -84 75 -105 71 -20 -4 -33 3 -65
35 -22 22 -49 45 -59 51 -17 10 -17 8 3 -19z"/>
<path d="M2616 1769 c2 -4 13 -7 24 -6 23 2 17 10 -10 12 -10 1 -17 -2 -14 -6z"/>
<path d="M4105 1753 c-8 -12 -15 -25 -15 -29 0 -4 -8 -13 -17 -21 -10 -8 3 -3
29 11 25 13 50 22 54 18 4 -4 4 -1 0 6 -5 9 -12 9 -27 1 -12 -6 -23 -8 -26 -6
-3 3 9 13 26 22 36 18 38 21 11 21 -11 0 -27 -10 -35 -23z"/>
<path d="M4017 1737 l-17 -32 20 24 c17 20 26 41 18 41 -2 0 -11 -15 -21 -33z"/>
<path d="M2664 1715 c11 -8 24 -15 30 -15 5 0 1 7 -10 15 -10 8 -23 14 -29 14
-5 0 -1 -6 9 -14z"/>
<path d="M2765 1710 c10 -11 20 -20 23 -20 3 0 -3 9 -13 20 -10 11 -20 20 -23
20 -3 0 3 -9 13 -20z"/>
<path d="M2844 1694 c2 -11 8 -20 14 -20 25 -3 27 -5 12 -14 -9 -6 -10 -10 -3
-10 23 0 22 17 -2 40 -21 20 -23 20 -21 4z"/>
<path d="M3902 1680 c-12 -10 -28 -20 -35 -23 -24 -9 2 -19 33 -12 27 6 29 9
18 23 -11 13 -10 14 8 4 17 -9 25 -8 40 3 15 12 15 14 3 9 -10 -3 -20 -1 -24
5 -9 15 -16 13 -43 -9z"/>
<path d="M2559 1571 c43 -54 69 -71 106 -70 l30 1 -30 7 c-40 10 -83 38 -89
59 -3 10 -16 23 -28 31 -17 10 -14 4 11 -28z"/>
<path d="M2963 1603 c4 -6 20 -13 37 -15 37 -6 27 8 -14 18 -19 4 -27 3 -23
-3z"/>
<path d="M3751 1599 c-18 -6 -31 -12 -28 -15 8 -8 87 8 81 17 -6 10 -8 10 -53
-2z"/>
<path d="M4195 1570 c-4 -11 -11 -17 -17 -14 -6 4 -8 2 -5 -3 9 -14 -11 -30
-46 -38 -15 -4 -26 -10 -23 -12 3 -3 20 0 39 6 35 12 84 66 68 76 -5 3 -12 -4
-16 -15z"/>
<path d="M3618 1503 c7 -3 16 -2 19 1 4 3 -2 6 -13 5 -11 0 -14 -3 -6 -6z"/>
<path d="M3772 1100 c0 -14 2 -19 5 -12 2 6 2 18 0 25 -3 6 -5 1 -5 -13z"/>
<path d="M2458 1049 c6 -9 9 -19 5 -22 -3 -4 5 -6 20 -5 14 1 23 6 20 11 -3 4
-8 6 -11 3 -3 -3 -15 2 -26 11 -15 14 -18 14 -8 2z"/>
<path d="M2692 918 c-42 -14 -59 -24 -50 -29 18 -12 30 -11 23 1 -3 5 13 14
36 20 32 9 50 8 85 -4 24 -8 44 -11 44 -6 0 4 -6 11 -12 14 -7 4 -3 4 10 2 12
-2 22 -1 22 4 0 10 -37 20 -70 19 -14 0 -53 -9 -88 -21z"/>
<path d="M3940 930 c-13 -9 -13 -10 0 -10 13 0 13 -1 0 -10 -29 -18 0 -22 48
-6 27 9 57 13 68 10 29 -11 69 -44 53 -44 -11 0 -11 -2 1 -10 12 -8 12 -10 1
-10 -8 0 -12 -3 -9 -6 4 -3 16 -1 27 6 13 7 27 7 37 2 15 -8 15 -10 0 -15 -10
-4 -15 -3 -11 3 8 13 2 13 -30 -2 -26 -12 -35 -38 -12 -38 8 0 7 -4 -3 -10
-11 -7 -11 -10 -2 -10 7 0 11 -4 8 -8 -3 -5 11 -16 30 -25 43 -21 54 -22 28
-2 -19 15 -19 15 1 9 12 -3 15 -2 9 3 -6 4 -10 16 -9 25 2 10 -2 15 -9 12 -7
-3 -13 2 -13 11 0 10 6 14 16 10 8 -3 12 -3 8 1 -4 4 -2 13 4 20 8 10 3 17
-25 31 -23 10 -32 19 -24 24 13 8 -111 49 -151 49 -14 0 -33 -5 -41 -10z m220
-160 c-8 -5 -19 -10 -25 -10 -5 0 -3 5 5 10 8 5 20 10 25 10 6 0 3 -5 -5 -10z"/>
<path d="M2340 920 c-23 -14 21 -56 47 -45 10 5 22 7 26 6 15 -3 20 31 6 40
-18 11 -60 11 -79 -1z"/>
<path d="M4349 913 c-11 -15 -11 -16 1 -5 20 18 33 15 27 -7 -9 -34 7 -42 36
-17 20 17 24 25 15 34 -18 18 -64 14 -79 -5z"/>
<path d="M2606 863 c-28 -15 -29 -16 -11 -29 21 -16 30 -48 11 -41 -7 3 -12
-4 -12 -17 0 -16 6 -22 22 -21 29 0 36 8 39 43 1 16 6 35 10 43 6 9 3 11 -9 6
-10 -4 -20 -7 -22 -7 -3 0 -2 -4 1 -10 3 -6 -1 -7 -10 -3 -12 4 -13 8 -5 13 7
4 8 10 4 12 -5 3 -3 3 4 2 6 -2 19 -1 28 3 13 5 13 7 2 14 -17 11 -18 11 -52
-8z m24 -83 c-12 -8 -12 -10 -1 -10 8 0 12 -2 9 -5 -3 -3 -13 -2 -22 1 -14 5
-15 9 -4 15 7 5 18 9 23 9 6 0 3 -5 -5 -10z"/>
<path d="M3963 858 c-38 -15 -53 -26 -53 -39 0 -18 2 -18 46 -1 30 11 50 25
55 40 5 12 7 21 6 21 -1 -1 -26 -10 -54 -21z"/>
<path d="M2774 854 c3 -18 6 -21 47 -38 32 -14 35 -13 36 4 1 13 -10 23 -42
33 -36 13 -43 13 -41 1z"/>
<path d="M2361 818 c12 -12 24 -14 50 -8 l34 8 -32 1 c-17 1 -40 4 -50 8 -16
6 -17 6 -2 -9z"/>
<path d="M2709 808 c0 -13 -2 -30 -4 -38 -2 -8 -6 -25 -9 -37 -2 -12 -12 -32
-20 -46 -15 -22 -15 -25 6 -44 24 -22 88 -57 93 -51 2 2 -3 14 -12 28 -10 17
-12 19 -8 5 5 -16 4 -17 -6 -8 -10 10 -9 15 1 28 10 12 10 15 0 15 -8 0 -10 3
-7 7 4 3 2 12 -4 20 -9 10 -8 13 0 13 7 0 9 5 6 10 -4 6 -2 9 3 8 5 -2 19 8
30 20 l21 24 81 -27 c45 -15 83 -25 86 -23 2 3 -22 13 -54 22 -68 22 -137 53
-174 78 l-28 19 -1 -23z"/>
<path d="M4020 805 c-19 -13 -61 -33 -93 -46 -73 -28 -69 -35 6 -10 49 17 55
17 50 4 -4 -10 -2 -14 4 -10 6 4 10 1 9 -6 0 -6 3 -13 8 -14 17 -3 24 -26 16
-53 -5 -16 -4 -32 1 -37 14 -14 -5 -27 -103 -63 -49 -19 -86 -35 -84 -37 4 -4
130 40 183 63 18 8 35 14 38 14 3 0 17 12 30 26 24 26 24 29 9 51 -16 25 -22
44 -31 103 -3 19 -6 36 -7 36 0 1 -17 -9 -36 -21z"/>
<path d="M4370 821 l-35 -7 29 -6 c19 -4 35 -1 43 8 8 8 11 13 6 13 -4 -1 -24
-5 -43 -8z"/>
<path d="M4367 789 c7 -7 15 -10 18 -7 3 3 -2 9 -12 12 -14 6 -15 5 -6 -5z"/>
<path d="M2398 723 c6 -2 18 -2 25 0 6 3 1 5 -13 5 -14 0 -19 -2 -12 -5z"/>
<path d="M4370 720 c21 -7 22 -8 5 -9 -16 -1 -17 -3 -6 -10 11 -7 4 -11 -25
-14 l-39 -4 37 -1 c20 -1 49 3 65 9 l28 11 -25 13 c-14 8 -34 14 -45 14 -16
-1 -15 -2 5 -9z"/>
<path d="M2353 713 c-7 -3 -13 -10 -13 -16 0 -8 22 -13 63 -13 54 -2 57 -1 22
6 -22 4 -31 8 -21 9 11 0 17 3 15 5 -9 7 -55 14 -66 9z"/>
<path d="M3778 703 c7 -3 16 -2 19 1 4 3 -2 6 -13 5 -11 0 -14 -3 -6 -6z"/>
<path d="M4278 693 c7 -3 16 -2 19 1 4 3 -2 6 -13 5 -11 0 -14 -3 -6 -6z"/>
<path d="M3068 683 c7 -3 16 -2 19 1 4 3 -2 6 -13 5 -11 0 -14 -3 -6 -6z"/>
<path d="M3118 673 c7 -3 16 -2 19 1 4 3 -2 6 -13 5 -11 0 -14 -3 -6 -6z"/>
<path d="M3638 673 c7 -3 16 -2 19 1 4 3 -2 6 -13 5 -11 0 -14 -3 -6 -6z"/>
<path d="M3178 663 c6 -2 18 -2 25 0 6 3 1 5 -13 5 -14 0 -19 -2 -12 -5z"/>
<path d="M3568 663 c6 -2 18 -2 25 0 6 3 1 5 -13 5 -14 0 -19 -2 -12 -5z"/>
<path d="M3273 653 c15 -2 37 -2 50 0 12 2 0 4 -28 4 -27 0 -38 -2 -22 -4z"/>
<path d="M3453 653 c9 -2 25 -2 35 0 9 3 1 5 -18 5 -19 0 -27 -2 -17 -5z"/>
<path d="M2800 580 c8 -5 20 -10 25 -10 6 0 3 5 -5 10 -8 5 -19 10 -25 10 -5
0 -3 -5 5 -10z"/>
<path d="M2866 555 c17 -7 44 -16 60 -20 25 -4 24 -3 -6 8 -19 8 -46 17 -60
20 -19 5 -17 3 6 -8z"/>
<path d="M2968 523 c7 -3 16 -2 19 1 4 3 -2 6 -13 5 -11 0 -14 -3 -6 -6z"/>
<path d="M3788 523 c7 -3 16 -2 19 1 4 3 -2 6 -13 5 -11 0 -14 -3 -6 -6z"/>
<path d="M3008 513 c6 -2 18 -2 25 0 6 3 1 5 -13 5 -14 0 -19 -2 -12 -5z"/>
<path d="M3738 513 c6 -2 18 -2 25 0 6 3 1 5 -13 5 -14 0 -19 -2 -12 -5z"/>
<path d="M3058 503 c7 -3 16 -2 19 1 4 3 -2 6 -13 5 -11 0 -14 -3 -6 -6z"/>
<path d="M3698 503 c7 -3 16 -2 19 1 4 3 -2 6 -13 5 -11 0 -14 -3 -6 -6z"/>
<path d="M3648 493 c7 -3 16 -2 19 1 4 3 -2 6 -13 5 -11 0 -14 -3 -6 -6z"/>
<path d="M3907 473 c-15 -15 -27 -22 -27 -15 0 6 -5 12 -12 12 -9 0 -9 -3 -1
-11 6 -6 9 -18 6 -25 -9 -24 2 -16 36 26 37 47 37 51 -2 13z"/>
<path d="M3168 483 c6 -2 18 -2 25 0 6 3 1 5 -13 5 -14 0 -19 -2 -12 -5z"/>
<path d="M3578 483 c6 -2 18 -2 25 0 6 3 1 5 -13 5 -14 0 -19 -2 -12 -5z"/>
<path d="M3243 473 c9 -2 25 -2 35 0 9 3 1 5 -18 5 -19 0 -27 -2 -17 -5z"/>
<path d="M3483 473 c9 -2 25 -2 35 0 9 3 1 5 -18 5 -19 0 -27 -2 -17 -5z"/>
<path d="M2751 465 c0 -5 3 -14 7 -20 9 -13 42 -16 42 -4 0 5 -9 9 -19 9 -11
0 -22 6 -24 13 -3 6 -6 8 -6 2z"/>
<path d="M2879 443 c20 -30 20 -32 4 -43 -16 -10 -15 -10 5 -5 14 4 21 2 20
-4 -2 -6 12 -21 30 -32 l33 -22 -18 36 c-10 20 -23 37 -30 37 -20 0 -34 35
-20 50 10 12 9 12 -4 2 -12 -9 -19 -9 -29 1 -7 6 -3 -2 9 -20z"/>
<path d="M3981 444 c13 -16 29 -19 29 -5 0 5 -9 11 -21 14 -16 4 -18 3 -8 -9z"/>
<path d="M3831 384 c-47 -39 -37 -47 18 -17 31 18 45 31 38 35 -18 12 -23 10
-56 -18z"/>
</g>
</svg>
